<?xml version="1.0" standalone="no"?>
<!DOCTYPE svg PUBLIC "-//W3C//DTD SVG 20010904//EN"
 "http://www.w3.org/TR/2001/REC-SVG-20010904/DTD/svg10.dtd">
<svg version="1.0" xmlns="http://www.w3.org/2000/svg"
 width="225.000000pt" height="225.000000pt" viewBox="0 0 225.000000 225.000000"
 preserveAspectRatio="xMidYMid meet">

<g transform="translate(0.000000,225.000000) scale(0.100000,-0.100000)"
fill="#000000" stroke="none">
<path d="M1075 1553 c47 -42 85 -80 85 -84 0 -5 -5 -19 -12 -33 -8 -20 -14
-23 -24 -15 -10 8 -17 7 -29 -4 -18 -19 -20 -38 -2 -32 6 3 23 -5 37 -16 14
-11 18 -17 10 -13 -8 4 -12 3 -7 -1 4 -5 58 -10 120 -11 61 0 144 -8 182 -17
39 -9 91 -18 116 -22 l46 -6 12 -52 c6 -29 12 -81 14 -117 l2 -64 40 94 40 95
43 3 42 3 0 87 0 87 -104 98 -105 97 -296 0 -296 0 86 -77z"/>
<path d="M1038 1519 c-30 -11 -46 -45 -29 -62 8 -8 11 -8 11 1 0 7 5 12 12 12
6 0 19 7 29 16 16 15 19 14 31 -5 18 -29 41 -28 33 2 -8 24 -32 47 -49 46 -6
0 -23 -5 -38 -10z"/>
<path d="M1001 1398 c-13 -37 -8 -46 14 -24 9 9 21 16 26 16 15 0 10 15 -10
27 -17 11 -21 8 -30 -19z"/>
<path d="M1810 1332 l0 -79 86 -1 86 0 -39 40 c-21 22 -59 58 -85 80 l-48 40
0 -80z"/>
<path d="M1021 1360 c-13 -11 -18 -20 -13 -20 6 0 14 5 17 10 3 6 13 10 21 10
8 0 13 -4 10 -9 -3 -5 1 -11 9 -15 8 -3 17 0 21 6 4 6 3 8 -4 4 -6 -3 -13 3
-17 14 -8 25 -14 25 -44 0z"/>
<path d="M1100 1348 c0 -12 3 -18 7 -15 3 4 13 1 21 -6 11 -9 11 -4 -2 16 -22
33 -26 34 -26 5z"/>
<path d="M996 1322 c-3 -5 1 -15 8 -21 11 -10 14 -9 12 3 -3 21 -13 29 -20 18z"/>
<path d="M1295 1113 c-102 -29 -162 -150 -121 -248 15 -34 14 -35 -8 -35 -34
0 -75 -36 -69 -60 7 -25 9 -25 35 0 19 18 38 25 60 21 4 0 4 7 1 17 -4 12 2
10 23 -9 44 -41 73 -52 130 -51 59 0 100 19 141 62 27 28 30 29 68 19 22 -6
48 -18 57 -26 9 -8 21 -12 26 -9 13 8 62 -17 62 -31 0 -20 20 -15 21 5 1 9 3
24 4 32 1 8 3 24 4 35 1 16 6 13 21 -15 l20 -35 -2 35 -3 35 -117 29 -118 29
0 35 c0 46 -41 115 -84 142 -35 21 -114 33 -151 23z m115 -55 c95 -49 107
-161 25 -238 -23 -21 -36 -25 -90 -25 -54 0 -67 4 -90 25 -104 97 -47 251 95
259 9 1 36 -9 60 -21z"/>
<path d="M413 879 c3 -10 -1 -23 -9 -30 -24 -20 -15 -28 22 -22 29 5 40 2 50
-12 13 -17 14 -17 14 -2 0 9 -9 26 -20 37 -11 11 -15 22 -9 25 16 10 1 23 -27
23 -20 0 -25 -5 -21 -19z"/>
<path d="M283 645 c0 -8 9 -15 20 -15 10 0 17 5 15 13 -7 18 -35 20 -35 2z"/>
<path d="M430 610 c0 -5 5 -10 11 -10 5 0 7 5 4 10 -3 6 -8 10 -11 10 -2 0 -4
-4 -4 -10z"/>
<path d="M296 584 c-22 -21 -20 -47 4 -69 16 -14 28 -16 67 -10 52 8 85 9 151
4 36 -3 47 0 62 19 19 23 17 50 -4 64 -20 14 -53 8 -67 -11 -10 -14 -27 -20
-59 -21 -70 -3 -80 -1 -80 14 0 27 -50 34 -74 10z m189 -44 c-3 -5 -13 -10
-21 -10 -8 0 -14 5 -14 10 0 6 9 10 21 10 11 0 17 -4 14 -10z"/>
<path d="M1704 543 c-38 -4 -42 -7 -53 -42 -15 -52 -14 -66 9 -110 10 -21 16
-41 13 -45 -9 -9 20 -7 35 3 12 7 11 14 -2 39 -19 37 -20 66 -2 107 l13 30 20
-45 c24 -54 47 -75 93 -88 28 -7 34 -13 33 -30 -4 -29 13 -28 21 1 9 34 9 34
-38 66 -30 21 -50 45 -62 76 -11 25 -23 44 -29 43 -5 -1 -28 -3 -51 -5z"/>
</g>
</svg>
